<?xml version="1.0" encoding="UTF-8" standalone="no"?>
<!-- Created with Inkscape (http://www.inkscape.org/) -->

<svg
   xmlns:dc="http://purl.org/dc/elements/1.1/"
   xmlns:cc="http://creativecommons.org/ns#"
   xmlns:rdf="http://www.w3.org/1999/02/22-rdf-syntax-ns#"
   xmlns:svg="http://www.w3.org/2000/svg"
   xmlns="http://www.w3.org/2000/svg"
   xmlns:sodipodi="http://sodipodi.sourceforge.net/DTD/sodipodi-0.dtd"
   xmlns:inkscape="http://www.inkscape.org/namespaces/inkscape"
   width="184.81409mm"
   height="121.81155mm"
   viewBox="0 0 184.81409 121.81155"
   version="1.1"
   id="svg8"
   inkscape:version="0.92.3 (2405546, 2018-03-11)"
   sodipodi:docname="icon_webpressjournal.svg">
  <defs
     id="defs2" />
  <sodipodi:namedview
     id="base"
     pagecolor="#ffffff"
     bordercolor="#666666"
     borderopacity="1.0"
     inkscape:pageopacity="0.0"
     inkscape:pageshadow="2"
     inkscape:zoom="0.49497475"
     inkscape:cx="483.60653"
     inkscape:cy="242.81336"
     inkscape:document-units="mm"
     inkscape:current-layer="g3800"
     showgrid="true"
     inkscape:snap-global="false"
     inkscape:window-width="1920"
     inkscape:window-height="1001"
     inkscape:window-x="-9"
     inkscape:window-y="-9"
     inkscape:window-maximized="1"
     inkscape:pagecheckerboard="false"
     fit-margin-top="0"
     fit-margin-left="0"
     fit-margin-right="0"
     fit-margin-bottom="0" />
  <metadata
     id="metadata5">
    <rdf:RDF>
      <cc:Work
         rdf:about="">
        <dc:format>image/svg+xml</dc:format>
        <dc:type
           rdf:resource="http://purl.org/dc/dcmitype/StillImage" />
        <dc:title></dc:title>
      </cc:Work>
    </rdf:RDF>
  </metadata>
  <g
     inkscape:label="Layer 1"
     inkscape:groupmode="layer"
     id="layer1"
     transform="translate(-16.165052,-56.111331)">
    <g
       id="g3800"
       transform="matrix(2.6205236,0,0,2.5924638,-161.87239,-389.62428)">
      <path
         style="fill:#ec382a;stroke-width:0.35277775"
         d="m 82.373612,218.56565 c -2.913451,-0.46906 -6.775054,-2.51905 -9.114495,-4.83856 -7.018338,-6.95857 -7.102049,-17.86763 -0.190568,-24.83437 2.235034,-2.2529 4.968395,-3.82571 8.219532,-4.72961 2.0117,-0.5593 2.383017,-0.80731 3.339544,-2.23051 0.591903,-0.88069 2.154525,-2.66924 3.472494,-3.97457 1.770185,-1.75321 3.155593,-2.73467 5.302261,-3.75627 1.598275,-0.76061 3.779079,-1.5891 4.846232,-1.84108 2.659868,-0.62806 7.816148,-0.54956 10.539468,0.16044 6.92566,1.80563 12.75951,7.26977 15.22782,14.2628 l 0.9466,2.68184 1.99192,0.45239 c 2.31392,0.52552 3.64881,1.15869 5.90957,2.80306 3.24365,2.35927 5.60129,7.16477 5.60129,11.41691 0,1.12644 -0.31468,3.06689 -0.69929,4.31212 -0.77804,2.51898 -2.87233,5.68887 -4.65729,7.04921 -1.91102,1.4564 -4.58857,2.66699 -6.80504,3.07673 -2.52788,0.4673 -41.019411,0.45808 -43.930048,-0.0105 z m 45.331948,-6.54018 c 2.96028,-1.59739 4.74393,-4.55616 4.7513,-7.88162 0.008,-3.38557 -1.85438,-6.33476 -5.05818,-8.01206 -0.67671,-0.35428 -2.39538,-0.65663 -4.4391,-0.78093 l -3.33486,-0.20284 -0.41911,-2.94128 c -0.58078,-4.07595 -2.29675,-7.47624 -5.06744,-10.0414 -2.20701,-2.0433 -4.86877,-3.50777 -7.46233,-4.10568 -3.37777,-0.77871 -7.297842,-0.26703 -10.74729,1.40282 -2.611954,1.26443 -5.562669,4.25845 -7.056216,7.15978 l -1.31988,2.56398 -2.942112,0.40118 c -3.466185,0.47266 -5.968725,1.68774 -7.741486,3.75882 -1.915322,2.23762 -2.714931,4.24763 -2.882032,7.24469 -0.11808,2.11782 0.0049,3.07861 0.593978,4.63925 0.784801,2.07928 2.545709,4.39218 4.289074,5.63357 0.575791,0.41 1.877495,1.04686 2.892676,1.41525 1.746469,0.63375 2.994167,0.66543 23.188838,0.58885 21.11759,-0.0801 21.35796,-0.089 22.75417,-0.84238 z m -26.39786,-6.58618 c -2.054338,-1.24359 -5.301943,-4.61993 -6.22872,-6.47562 -0.455057,-0.91116 -0.900499,-2.41766 -0.989871,-3.34778 -0.189134,-1.96835 0.40351,-3.12254 2.150198,-4.18756 1.938417,-1.18193 5.225623,-0.75303 6.561033,0.85605 0.38872,0.46837 0.62052,0.40597 1.87933,-0.50591 1.07079,-0.77567 1.8297,-1.04017 2.98454,-1.04017 1.92519,0 4.06803,1.05676 4.62599,2.28135 0.64353,1.41239 0.50578,3.67343 -0.32881,5.39748 -1.47164,3.04 -6.72409,7.84613 -8.56979,7.84158 -0.4033,-0.001 -1.34105,-0.36973 -2.0839,-0.81942 z"
         id="path3802"
         inkscape:connector-curvature="0" />
    </g>
  </g>
</svg>
